<svg width="24" height="24" viewBox="0 0 24 24" fill="none" xmlns="http://www.w3.org/2000/svg">
<path d="M9 23C9.55228 23 10 22.531 10 21.9524C10 21.3738 9.55228 20.9048 9 20.9048C8.44772 20.9048 8 21.3738 8 21.9524C8 22.531 8.44772 23 9 23Z" stroke="white" stroke-width="2" stroke-linecap="round" stroke-linejoin="round"/>
<path d="M20 23C20.5523 23 21 22.531 21 21.9524C21 21.3738 20.5523 20.9048 20 20.9048C19.4477 20.9048 19 21.3738 19 21.9524C19 22.531 19.4477 23 20 23Z" stroke="white" stroke-width="2" stroke-linecap="round" stroke-linejoin="round"/>
<path d="M1 1H5L7.68 15.0276C7.77144 15.5099 8.02191 15.9432 8.38755 16.2515C8.75318 16.5599 9.2107 16.7237 9.68 16.7143H19.4C19.8693 16.7237 20.3268 16.5599 20.6925 16.2515C21.0581 15.9432 21.3086 15.5099 21.4 15.0276L23 6.23809H6" stroke="white" stroke-width="2" stroke-linecap="round" stroke-linejoin="round"/>
</svg>
